<svg id="BRNM_Logo_White" data-name="BRNM Logo White" xmlns="http://www.w3.org/2000/svg" viewBox="0 0 222.75 58.25"><defs><style>.cls-1{fill:#fff;}.cls-2{fill:#e31b23;}.cls-3{fill:none;stroke:#e30613;stroke-miterlimit:10;stroke-width:4.05px;}</style></defs><path class="cls-1" d="M91.65,36.38l6,9.13V36.3A2,2,0,0,1,98.07,35a1.31,1.31,0,0,1,1-.45,1.35,1.35,0,0,1,1.07.45,2,2,0,0,1,.39,1.35V48.48c0,1.36-.56,2-1.69,2a2.24,2.24,0,0,1-.76-.12,1.74,1.74,0,0,1-.63-.39,3.23,3.23,0,0,1-.55-.61l-.51-.73-5.89-9v9.08a1.92,1.92,0,0,1-.41,1.34,1.46,1.46,0,0,1-2.12,0,1.94,1.94,0,0,1-.4-1.33V36.78a3.25,3.25,0,0,1,.17-1.2,1.68,1.68,0,0,1,.66-.77,1.85,1.85,0,0,1,1-.31,1.74,1.74,0,0,1,.72.14,1.8,1.8,0,0,1,.53.37,4.66,4.66,0,0,1,.46.6Z"/><path class="cls-1" d="M115.75,45.37h-5.64a3.83,3.83,0,0,0,.39,1.73,2.76,2.76,0,0,0,1,1.13,2.71,2.71,0,0,0,1.41.38,3.45,3.45,0,0,0,.94-.12,3,3,0,0,0,.83-.38,6.23,6.23,0,0,0,.74-.56c.23-.19.52-.46.88-.8a.93.93,0,0,1,.63-.19,1,1,0,0,1,.72.24.85.85,0,0,1,.28.69,1.93,1.93,0,0,1-.31.91,3.56,3.56,0,0,1-.92,1,5.3,5.3,0,0,1-1.56.79,6.44,6.44,0,0,1-2.15.32,5.78,5.78,0,0,1-4.32-1.58,5.9,5.9,0,0,1-1.54-4.3,7.29,7.29,0,0,1,.38-2.38,5.17,5.17,0,0,1,1.11-1.87,4.75,4.75,0,0,1,1.8-1.2,6.39,6.39,0,0,1,2.36-.42,5.55,5.55,0,0,1,2.9.72,4.63,4.63,0,0,1,1.81,1.84,4.74,4.74,0,0,1,.61,2.3q0,1.09-.63,1.41A3.78,3.78,0,0,1,115.75,45.37Zm-5.64-1.64h5.23a3.52,3.52,0,0,0-.8-2.22,2.42,2.42,0,0,0-1.82-.73,2.3,2.3,0,0,0-1.77.75A3.7,3.7,0,0,0,110.11,43.73Z"/><path class="cls-1" d="M131.74,48.89a8.69,8.69,0,0,1-2,1.22,5.53,5.53,0,0,1-2.2.41,4.17,4.17,0,0,1-1.94-.44,3.19,3.19,0,0,1-1.3-1.19,3.09,3.09,0,0,1-.45-1.62,2.92,2.92,0,0,1,.75-2,3.7,3.7,0,0,1,2.06-1.12l1.36-.29c.73-.14,1.35-.28,1.87-.4l1.68-.45a3,3,0,0,0-.46-1.68,2.06,2.06,0,0,0-1.68-.53,3.45,3.45,0,0,0-1.66.31,2.68,2.68,0,0,0-1,.92,9.4,9.4,0,0,1-.56.8.91.91,0,0,1-.7.2,1.2,1.2,0,0,1-.84-.31,1,1,0,0,1-.36-.8,2.43,2.43,0,0,1,.54-1.48,3.85,3.85,0,0,1,1.68-1.18,7.58,7.58,0,0,1,2.85-.47,8.07,8.07,0,0,1,3,.45,2.78,2.78,0,0,1,1.53,1.42,6.22,6.22,0,0,1,.45,2.58v1.72c0,.47,0,1,0,1.58a5.77,5.77,0,0,0,.27,1.69,5.37,5.37,0,0,1,.27,1.14,1.08,1.08,0,0,1-.42.81,1.4,1.4,0,0,1-.94.36,1.27,1.27,0,0,1-.88-.42A5.72,5.72,0,0,1,131.74,48.89Zm-.19-4.17a13.44,13.44,0,0,1-1.84.49c-.81.17-1.37.3-1.68.38a2.29,2.29,0,0,0-.89.48,1.21,1.21,0,0,0-.42,1,1.48,1.48,0,0,0,.5,1.11,1.81,1.81,0,0,0,1.3.46,3.37,3.37,0,0,0,1.58-.37,2.58,2.58,0,0,0,1.06-1,4.46,4.46,0,0,0,.39-2.16Z"/><path class="cls-1" d="M144.07,46.36v2.41a1.82,1.82,0,0,1-.42,1.31,1.37,1.37,0,0,1-1,.44,1.34,1.34,0,0,1-1-.44,1.9,1.9,0,0,1-.4-1.31v-8q0-2,1.41-2a1.17,1.17,0,0,1,1,.46,2.5,2.5,0,0,1,.35,1.34A5.17,5.17,0,0,1,145,39.25a2.21,2.21,0,0,1,1.45-.46,3.77,3.77,0,0,1,1.77.46,1.34,1.34,0,0,1,.85,1.2,1.14,1.14,0,0,1-.36.87,1.12,1.12,0,0,1-.79.35,3.78,3.78,0,0,1-.76-.2,3.56,3.56,0,0,0-1.07-.19,1.58,1.58,0,0,0-1,.33,2,2,0,0,0-.62,1,6.82,6.82,0,0,0-.31,1.56C144.09,44.76,144.07,45.49,144.07,46.36Z"/><path class="cls-1" d="M169.31,47.92l-2.48-9.87v10.7a2,2,0,0,1-.4,1.33,1.34,1.34,0,0,1-1.05.44,1.37,1.37,0,0,1-1-.44,2,2,0,0,1-.4-1.33V36.49a1.55,1.55,0,0,1,.53-1.37,2.58,2.58,0,0,1,1.43-.35h1a3.58,3.58,0,0,1,1.27.16,1,1,0,0,1,.59.57,9.28,9.28,0,0,1,.43,1.34l2.25,8.48,2.25-8.48a9.28,9.28,0,0,1,.43-1.34,1.06,1.06,0,0,1,.59-.57,3.61,3.61,0,0,1,1.27-.16h1a2.57,2.57,0,0,1,1.42.35,1.55,1.55,0,0,1,.53,1.37V48.75a1.92,1.92,0,0,1-.4,1.33,1.45,1.45,0,0,1-2.08,0,1.92,1.92,0,0,1-.4-1.33V38.05l-2.49,9.87q-.24,1-.39,1.41a1.91,1.91,0,0,1-.57.82,1.61,1.61,0,0,1-1.14.37,1.69,1.69,0,0,1-1.52-.84,3.52,3.52,0,0,1-.33-.82C169.48,48.56,169.39,48.25,169.31,47.92Z"/><path class="cls-1" d="M193.85,45.37h-5.64a3.71,3.71,0,0,0,.39,1.73,2.76,2.76,0,0,0,1,1.13,2.71,2.71,0,0,0,1.41.38,3.45,3.45,0,0,0,.94-.12,3.1,3.1,0,0,0,.83-.38,6.23,6.23,0,0,0,.74-.56c.23-.19.52-.46.88-.8a.93.93,0,0,1,.63-.19,1,1,0,0,1,.72.24.88.88,0,0,1,.28.69,1.93,1.93,0,0,1-.31.91,3.61,3.61,0,0,1-.93,1,5.24,5.24,0,0,1-1.55.79,6.44,6.44,0,0,1-2.15.32,5.78,5.78,0,0,1-4.32-1.58,5.9,5.9,0,0,1-1.54-4.3,7,7,0,0,1,.38-2.38,5.17,5.17,0,0,1,1.11-1.87,4.79,4.79,0,0,1,1.79-1.2,6.41,6.41,0,0,1,2.37-.42,5.57,5.57,0,0,1,2.9.72,4.63,4.63,0,0,1,1.81,1.84,4.84,4.84,0,0,1,.6,2.3c0,.73-.2,1.2-.62,1.41A3.78,3.78,0,0,1,193.85,45.37Zm-5.64-1.64h5.23a3.58,3.58,0,0,0-.8-2.22,2.42,2.42,0,0,0-1.83-.73,2.29,2.29,0,0,0-1.76.75A3.58,3.58,0,0,0,188.21,43.73Z"/><path class="cls-1" d="M203.5,43.55l-.34-5.06q-.09-1.49-.09-2.13a1.88,1.88,0,0,1,.46-1.36,1.57,1.57,0,0,1,1.21-.5,1.21,1.21,0,0,1,1.21.63,4.18,4.18,0,0,1,.31,1.81,13.67,13.67,0,0,1-.08,1.42l-.45,5.21a4.21,4.21,0,0,1-.32,1.43.82.82,0,0,1-.8.49.79.79,0,0,1-.79-.48A4.62,4.62,0,0,1,203.5,43.55Zm1.17,7a1.64,1.64,0,0,1-1.12-.42,1.45,1.45,0,0,1-.48-1.16,1.52,1.52,0,0,1,.46-1.12,1.5,1.5,0,0,1,1.12-.46,1.56,1.56,0,0,1,1.14.46,1.53,1.53,0,0,1,.47,1.12,1.47,1.47,0,0,1-.48,1.16A1.6,1.6,0,0,1,204.67,50.5Z"/><path class="cls-1" d="M24,24.11H19.08a2,2,0,0,1-1.51-.47,2.15,2.15,0,0,1-.45-1.51v-12a2.08,2.08,0,0,1,.46-1.52,2.06,2.06,0,0,1,1.5-.47h5.18a11.45,11.45,0,0,1,2,.15,4.19,4.19,0,0,1,1.51.54,4.08,4.08,0,0,1,1,.86,4,4,0,0,1,.67,1.14,3.91,3.91,0,0,1,.23,1.33,3.68,3.68,0,0,1-2.41,3.51c2.11.67,3.16,2,3.16,3.91A4.38,4.38,0,0,1,29.72,22a4.26,4.26,0,0,1-1.85,1.59,7.11,7.11,0,0,1-1.68.43A18.11,18.11,0,0,1,24,24.11ZM20.36,10.55v4.13h3a5.77,5.77,0,0,0,1.87-.23,1.79,1.79,0,0,0,1-.87,2,2,0,0,0,.27-1A1.59,1.59,0,0,0,25.62,11a6.51,6.51,0,0,0-2.63-.4ZM23.73,17H20.36v4.67h3.48c2.19,0,3.28-.79,3.28-2.37a1.93,1.93,0,0,0-.85-1.76A4.8,4.8,0,0,0,23.73,17Z"/><path class="cls-1" d="M50.86,18.33a7.16,7.16,0,0,1-.41,2.45,5.57,5.57,0,0,1-1.2,1.94A5.34,5.34,0,0,1,47.37,24a6.6,6.6,0,0,1-2.45.44A6.47,6.47,0,0,1,42.48,24a5.44,5.44,0,0,1-1.87-1.25,5.29,5.29,0,0,1-1.2-1.92,7.53,7.53,0,0,1,0-4.93,5.15,5.15,0,0,1,3.06-3.15,6.83,6.83,0,0,1,2.44-.43,6.6,6.6,0,0,1,2.45.44A5.31,5.31,0,0,1,49.26,14a5.41,5.41,0,0,1,1.19,1.92A6.94,6.94,0,0,1,50.86,18.33Zm-3,0a4.44,4.44,0,0,0-.8-2.84,2.58,2.58,0,0,0-2.15-1,2.66,2.66,0,0,0-1.54.45,2.83,2.83,0,0,0-1,1.34A5.42,5.42,0,0,0,42,18.33a5.31,5.31,0,0,0,.36,2,2.9,2.9,0,0,0,1,1.34,2.64,2.64,0,0,0,1.56.46,2.59,2.59,0,0,0,2.15-1A4.42,4.42,0,0,0,47.87,18.33Z"/><path class="cls-1" d="M67.44,22.7A8.73,8.73,0,0,1,65.35,24a5.62,5.62,0,0,1-2.26.43,4.29,4.29,0,0,1-2-.46,3.26,3.26,0,0,1-1.34-1.23A3.18,3.18,0,0,1,59.27,21,3,3,0,0,1,60,18.94a4,4,0,0,1,2.13-1.16l1.41-.29c.75-.15,1.39-.29,1.93-.42s1.11-.28,1.74-.47a3.16,3.16,0,0,0-.48-1.73A2.15,2.15,0,0,0,65,14.32a3.68,3.68,0,0,0-1.71.32,2.85,2.85,0,0,0-1,.95,7.47,7.47,0,0,1-.58.83.91.91,0,0,1-.72.21,1.24,1.24,0,0,1-.87-.33,1,1,0,0,1-.36-.82A2.54,2.54,0,0,1,60.36,14a4,4,0,0,1,1.74-1.22A7.77,7.77,0,0,1,65,12.25a8.31,8.31,0,0,1,3.09.46,2.88,2.88,0,0,1,1.59,1.47,6.42,6.42,0,0,1,.46,2.66v1.78c0,.49,0,1,0,1.63A5.85,5.85,0,0,0,70.43,22a6.09,6.09,0,0,1,.28,1.17,1.12,1.12,0,0,1-.43.84,1.47,1.47,0,0,1-1,.38,1.32,1.32,0,0,1-.91-.44A6.58,6.58,0,0,1,67.44,22.7Zm-.19-4.31a15.21,15.21,0,0,1-1.91.51l-1.73.39a2.35,2.35,0,0,0-.91.5,1.25,1.25,0,0,0-.44,1A1.52,1.52,0,0,0,62.77,22a2,2,0,0,0,1.35.47A3.47,3.47,0,0,0,65.75,22a2.52,2.52,0,0,0,1.09-1,4.59,4.59,0,0,0,.41-2.23Z"/><path class="cls-1" d="M79.51,12.53h.32V10.74c0-.48,0-.85,0-1.13a1.7,1.7,0,0,1,.22-.7,1.33,1.33,0,0,1,.5-.5,1.5,1.5,0,0,1,.73-.19,1.47,1.47,0,0,1,1,.43,1.21,1.21,0,0,1,.39.69,5.84,5.84,0,0,1,.08,1.16v2H83.9a1.39,1.39,0,0,1,1,.3,1,1,0,0,1,.33.77.85.85,0,0,1-.47.84,3.1,3.1,0,0,1-1.36.24h-.56v5.48a9.49,9.49,0,0,0,0,1.08,1.17,1.17,0,0,0,.26.61,1,1,0,0,0,.7.23,3.88,3.88,0,0,0,.71-.09,3.79,3.79,0,0,1,.7-.09.85.85,0,0,1,.64.29.94.94,0,0,1,.29.71,1.19,1.19,0,0,1-.78,1.1,5.24,5.24,0,0,1-2.26.39A3.94,3.94,0,0,1,81,23.92a2.21,2.21,0,0,1-.94-1.3,8.78,8.78,0,0,1-.23-2.22V14.68h-.39a1.44,1.44,0,0,1-1-.3,1,1,0,0,1-.34-.78,1,1,0,0,1,.36-.77A1.54,1.54,0,0,1,79.51,12.53Z"/><path class="cls-1" d="M110.81,17.27h-1.13v5.14a2.09,2.09,0,0,1-.45,1.49,1.65,1.65,0,0,1-2.37,0,2.22,2.22,0,0,1-.42-1.47V10.1a2.07,2.07,0,0,1,.47-1.52,2.08,2.08,0,0,1,1.51-.47h5.27a16.34,16.34,0,0,1,1.87.1,4.65,4.65,0,0,1,1.4.37,4.15,4.15,0,0,1,1.33.91,4,4,0,0,1,.88,1.37,4.56,4.56,0,0,1,.3,1.65,4,4,0,0,1-1,2.86,5.85,5.85,0,0,1-3.06,1.52A5.74,5.74,0,0,1,117,18.24a13.07,13.07,0,0,1,1.41,1.91,14.26,14.26,0,0,1,1,1.82,3.48,3.48,0,0,1,.34,1.12,1.14,1.14,0,0,1-.2.62,1.47,1.47,0,0,1-.55.5,1.73,1.73,0,0,1-.81.18,1.61,1.61,0,0,1-.92-.26,2.44,2.44,0,0,1-.63-.65c-.18-.26-.42-.65-.73-1.16l-1.3-2.16a11.69,11.69,0,0,0-1.25-1.81,3.11,3.11,0,0,0-1.12-.85A3.89,3.89,0,0,0,110.81,17.27Zm1.86-6.72h-3V15h2.9a7.92,7.92,0,0,0,2-.21,2.27,2.27,0,0,0,1.21-.68,2,2,0,0,0,.42-1.34,2,2,0,0,0-1.27-1.93A6.79,6.79,0,0,0,112.67,10.55Z"/><path class="cls-1" d="M136.79,19.06H131a4.07,4.07,0,0,0,.41,1.79,2.73,2.73,0,0,0,2.52,1.56,3.3,3.3,0,0,0,1-.13,3,3,0,0,0,.86-.39,6.55,6.55,0,0,0,.76-.57c.24-.2.54-.48.91-.83a1,1,0,0,1,.66-.2,1.12,1.12,0,0,1,.74.25.91.91,0,0,1,.28.71,1.87,1.87,0,0,1-.32.95,3.61,3.61,0,0,1-.95,1,5.35,5.35,0,0,1-1.6.83,6.93,6.93,0,0,1-2.23.33,5.94,5.94,0,0,1-4.46-1.64,6.1,6.1,0,0,1-1.59-4.44,7.45,7.45,0,0,1,.39-2.45,5.38,5.38,0,0,1,1.15-1.94,5,5,0,0,1,1.85-1.24,6.64,6.64,0,0,1,2.45-.43,5.79,5.79,0,0,1,3,.74,4.8,4.8,0,0,1,1.87,1.9,5,5,0,0,1,.63,2.38,1.49,1.49,0,0,1-.65,1.46A4,4,0,0,1,136.79,19.06ZM131,17.37h5.4a3.6,3.6,0,0,0-.82-2.29,2.49,2.49,0,0,0-1.88-.76,2.41,2.41,0,0,0-1.83.77A3.81,3.81,0,0,0,131,17.37Z"/><path class="cls-1" d="M151.17,13.92v.36a5.07,5.07,0,0,1,1.72-1.52,4.47,4.47,0,0,1,2.14-.49,4.31,4.31,0,0,1,2.11.51,3.3,3.3,0,0,1,1.38,1.46,3.15,3.15,0,0,1,.38,1.18A11.8,11.8,0,0,1,159,17v5.54a2,2,0,0,1-.41,1.36,1.46,1.46,0,0,1-2.14,0,2,2,0,0,1-.42-1.35v-5a4.86,4.86,0,0,0-.41-2.25,1.66,1.66,0,0,0-1.63-.79,2.4,2.4,0,0,0-1.45.48,2.7,2.7,0,0,0-1,1.3,9.63,9.63,0,0,0-.22,2.49v3.73a1.93,1.93,0,0,1-.42,1.36,1.42,1.42,0,0,1-1.08.46,1.35,1.35,0,0,1-1.06-.47,2,2,0,0,1-.42-1.35V14a1.92,1.92,0,0,1,.37-1.27,1.3,1.3,0,0,1,1-.42,1.33,1.33,0,0,1,.71.19A1.36,1.36,0,0,1,151,13,2.08,2.08,0,0,1,151.17,13.92Z"/><path class="cls-1" d="M168.83,12.53h.33V10.74c0-.48,0-.85,0-1.13a1.7,1.7,0,0,1,.22-.7,1.33,1.33,0,0,1,.5-.5,1.5,1.5,0,0,1,.73-.19,1.47,1.47,0,0,1,1,.43,1.21,1.21,0,0,1,.39.69,5.84,5.84,0,0,1,.08,1.16v2h1.1a1.38,1.38,0,0,1,1,.3,1,1,0,0,1,.33.77.85.85,0,0,1-.47.84,3.1,3.1,0,0,1-1.36.24h-.56v5.48a9.49,9.49,0,0,0,.05,1.08,1.11,1.11,0,0,0,.27.61.91.91,0,0,0,.69.23,3.88,3.88,0,0,0,.71-.09,3.79,3.79,0,0,1,.7-.09.88.88,0,0,1,.65.29,1,1,0,0,1,.28.71,1.19,1.19,0,0,1-.78,1.1,5.21,5.21,0,0,1-2.26.39,3.94,3.94,0,0,1-2.12-.47,2.21,2.21,0,0,1-.94-1.3,8.84,8.84,0,0,1-.22-2.22V14.68h-.4a1.44,1.44,0,0,1-1-.3,1,1,0,0,1-.34-.78,1,1,0,0,1,.36-.77A1.54,1.54,0,0,1,168.83,12.53Z"/><path class="cls-1" d="M190.81,22.7A8.93,8.93,0,0,1,188.72,24a5.66,5.66,0,0,1-2.26.43,4.33,4.33,0,0,1-2-.46,3.24,3.24,0,0,1-1.33-1.23,3.09,3.09,0,0,1-.47-1.68,3,3,0,0,1,.77-2.08,4,4,0,0,1,2.13-1.16l1.41-.29q1.13-.22,1.92-.42c.54-.13,1.12-.28,1.74-.47a3.08,3.08,0,0,0-.47-1.73,2.15,2.15,0,0,0-1.74-.55,3.63,3.63,0,0,0-1.71.32,2.77,2.77,0,0,0-1,.95,9.2,9.2,0,0,1-.58.83c-.11.14-.35.21-.73.21a1.23,1.23,0,0,1-.86-.33,1,1,0,0,1-.37-.82,2.56,2.56,0,0,1,.56-1.53,4,4,0,0,1,1.73-1.22,7.86,7.86,0,0,1,2.94-.48,8.31,8.31,0,0,1,3.09.46,2.88,2.88,0,0,1,1.59,1.47,6.58,6.58,0,0,1,.46,2.66c0,.7,0,1.3,0,1.78s0,1,0,1.63A5.85,5.85,0,0,0,193.8,22a5.76,5.76,0,0,1,.27,1.17,1.09,1.09,0,0,1-.43.84,1.45,1.45,0,0,1-1,.38,1.32,1.32,0,0,1-.91-.44A5.84,5.84,0,0,1,190.81,22.7Zm-.2-4.31a15,15,0,0,1-1.9.51l-1.73.39a2.39,2.39,0,0,0-.92.5,1.25,1.25,0,0,0-.43,1,1.52,1.52,0,0,0,.51,1.15,1.92,1.92,0,0,0,1.34.47,3.44,3.44,0,0,0,1.63-.39,2.55,2.55,0,0,0,1.1-1,4.61,4.61,0,0,0,.4-2.23Z"/><path class="cls-1" d="M203.27,22.57V9.65a2.05,2.05,0,0,1,.39-1.35,1.36,1.36,0,0,1,1.08-.46,1.42,1.42,0,0,1,1.09.45,2,2,0,0,1,.42,1.36V22.57a1.93,1.93,0,0,1-.42,1.36,1.44,1.44,0,0,1-1.09.46,1.34,1.34,0,0,1-1.06-.47A2,2,0,0,1,203.27,22.57Z"/><path class="cls-1" d="M34.72,40.24l.15.85C35.7,41,36.62,41,37.7,41l0-.86C36.55,40.15,35.58,40.19,34.72,40.24Z"/><path class="cls-1" d="M39.12,40.13V41h.39L42,41l0-.86H39.12Z"/><path class="cls-1" d="M26.56,42.45l1.17.52a7.39,7.39,0,0,1,1.94-1l-.77-.73A8.62,8.62,0,0,0,26.56,42.45Z"/><path class="cls-1" d="M30.3,40.82l.56.8a18.37,18.37,0,0,1,2.63-.42l-.25-.85A23,23,0,0,0,30.3,40.82Z"/><path class="cls-1" d="M43.46,41h2.9v-.85l-2.88,0Z"/><path class="cls-1" d="M55.34,35.52l1.45.15A9,9,0,0,0,57.14,34l-1.47-.06A9.58,9.58,0,0,1,55.34,35.52Z"/><path class="cls-1" d="M55.72,31.4c0,.39,0,.71,0,1s0,.43,0,.65l1.47,0c0-.23,0-.45,0-.67s0-.65,0-1Z"/><path class="cls-1" d="M47.75,40.15l.1.86a17,17,0,0,0,3-.38l-.53-.8A15.27,15.27,0,0,1,47.75,40.15Z"/><path class="cls-1" d="M54.09,37.79l1.31.4a6.19,6.19,0,0,0,1.07-1.67l-1.42-.21A5.71,5.71,0,0,1,54.09,37.79Z"/><path class="cls-1" d="M51.51,39.49l.79.72A8.24,8.24,0,0,0,54.59,39l-1.19-.51A6.73,6.73,0,0,1,51.51,39.49Z"/><path class="cls-1" d="M78.43,49.59,65.62,29.46a4.36,4.36,0,0,0-3.48-1.78H53.89c-.71.81-1.4,1.66-2.06,2.57h3.84v.26l1.48-.05a1.48,1.48,0,0,1,0-.21h5a1.4,1.4,0,0,1,.9.46L75.35,50.06H26.93l-1.24-.6c-.12.19-.23.39-.35.6H13.88L26.83,30.72a1.52,1.52,0,0,1,.94-.47h9.58c-.66-.91-1.35-1.76-2.06-2.57H27.77a4.43,4.43,0,0,0-3.49,1.75L10.78,49.58a1.81,1.81,0,0,0-.09,2.08,2.43,2.43,0,0,0,2.1,1H76.38a2.43,2.43,0,0,0,2.1-1A1.83,1.83,0,0,0,78.43,49.59Z"/><path class="cls-2" d="M44.65,9.53a8.86,8.86,0,0,0-8.85,8.86c0,4.18,1.77,6.26,3.83,8.67a19.43,19.43,0,0,1,5,9.34,19.43,19.43,0,0,1,5-9.34c2-2.41,3.83-4.49,3.83-8.67A8.86,8.86,0,0,0,44.65,9.53Zm0,13.44a4.59,4.59,0,1,1,4.59-4.58A4.59,4.59,0,0,1,44.65,23Z"/><ellipse class="cls-3" cx="44.95" cy="18.15" rx="4.37" ry="5.59"/><g id="Boat_2_copy_3" data-name="Boat 2 copy 3"><path class="cls-1" d="M59.2,43.62a.36.36,0,0,1,.38-.27.34.34,0,0,1,.37.29.13.13,0,0,1,0,.06A6.43,6.43,0,0,0,59.2,43.62ZM48.72,45.14h-.09a.46.46,0,0,0-.2.07s0,0,0-.14-.15-.17-.15-.17,0,0,0,0,0,0,.06,0c-.21-.13-.44-.27-.69-.4-.81-.43,6.24.15,12,.92-.44-.08-1-.17-1.69-.27L57,45l2.52.22h0l1-.68s0-.07,0-.07l-3-.19h0l-1,.7h-.07l1-.7h-1l-1.3.48h0c.48-.21,1.3-.56,2-.81,2-.8,6.39.69,7.81,1.4-.23-.13-.55-.28-.92-.44h.37l.8-1.06-2.39-.05a.15.15,0,0,0-.09,0h0l-.11.51-.7-.22.33-.43a.09.09,0,0,1,.09,0l1.4,0c0-.11.12-.33.16-.42h-.22c-.24,0-.43,0-.43,0a1.27,1.27,0,0,1,.42-.11,4.54,4.54,0,0,1,.74,0,1.93,1.93,0,0,1,.43,0,2,2,0,0,1-.42.1l-.25,0a.09.09,0,0,1,0,.05l-.08.38,1.28,0h0l.34.08a.09.09,0,0,1,.07.12l-.21,1h1.11c.08,0,.06.18,0,.18-1.38,0-1.28.51-1.26.57a2.07,2.07,0,0,1,.4.78A11.31,11.31,0,0,0,63.82,46a8.79,8.79,0,0,1,2.47.71c.67.47.68.89.67,1l1.84.07-17.26,0s1.09-.58,10.2-.24l4.51.17c-3-.18-14.35-.81-15.2,0C50.68,48.11,50.64,46.61,48.72,45.14Zm12.41,1.3.27,0s.08,0,.08-.1,0-.11,0-.11l-.27,0s-.08,0-.08.1S61.1,46.44,61.13,46.44ZM64,45.6l.46-.17s-2.83-1.07-3.66-.92a4.33,4.33,0,0,0-1,.67ZM57.76,46l.37,0s.09,0,.1-.12a.13.13,0,0,0-.07-.14l-.37,0s-.09,0-.1.12S57.71,46,57.76,46Zm-3.57-.36.4,0c.06,0,.11,0,.12-.12s0-.14-.09-.14l-.4,0a.13.13,0,0,0-.12.12C54.1,45.54,54.13,45.6,54.19,45.61Zm-4.26-.46h0a0,0,0,0,1,0,0h0v0h0s0,0,0,0h0Zm-.23-.1a.22.22,0,0,0,0,.08v0s0,0,0,0,0,0,0,.05a0,0,0,0,0,0,0h.13l0,0h-.15s0,0,0,0a.06.06,0,0,1,0,0v-.09a.19.19,0,0,0,0-.08.43.43,0,0,0,0,0v0h0s0,0,0,0A.07.07,0,0,1,49.7,45.05Zm.25-.2a.11.11,0,0,1,.1.08c0-.09-.06-.16-.12-.16l-.55-.05c-.07,0-.13.07-.14.17s0,.19.11.2h0a.14.14,0,0,1-.08-.15c0-.08.07-.15.14-.14Zm-3.64,2.93a35.39,35.39,0,0,0,3.71,0c.47-.06.56-.15.56-.15Z"/></g></svg>