<svg xmlns="http://www.w3.org/2000/svg" width="150.07" height="74.067" viewBox="0 0 150.07 74.067"><g transform="translate(-3038.93 -2103.56)"><g transform="translate(2990.86 1987.12)"><path d="M48.07,146.112l5.589-5.492v3.1h4.755v2.68H53.659v7.358q0,2.577,2.133,2.577a6.649,6.649,0,0,0,3.382-1.061v2.777a7.5,7.5,0,0,1-3.741.97,4.955,4.955,0,0,1-3.4-1.193,3.386,3.386,0,0,1-.7-.809,4.346,4.346,0,0,1-.465-1.177,13.148,13.148,0,0,1-.194-2.769V146.4h-2.6Z" transform="translate(0 -19.491)" fill="#e31b23"/><path d="M127.29,116.44h2.975v9.772a5.743,5.743,0,0,1,4.623-2.271,4.961,4.961,0,0,1,2.7.752,4.549,4.549,0,0,1,1.772,2.077,10.235,10.235,0,0,1,.582,3.937v8.564h-2.977v-9.3a4.107,4.107,0,0,0-.809-2.655,2.6,2.6,0,0,0-2.133-1.006,3.58,3.58,0,0,0-1.846.508,8.285,8.285,0,0,0-1.912,1.683V139.27H127.29Z" transform="translate(-63.857)" fill="#e31b23"/><path d="M224,163.215H213.429a4.9,4.9,0,0,0,1.447,3.432,4.77,4.77,0,0,0,3.44,1.272,8.94,8.94,0,0,0,5.43-1.831V169a9.97,9.97,0,0,1-2.715,1.309,11.442,11.442,0,0,1-3.161.388,7.106,7.106,0,0,1-4.02-1.028,7.478,7.478,0,0,1-2.459-2.771,8.449,8.449,0,0,1-.937-4.018,8.013,8.013,0,0,1,1.939-5.579,6.467,6.467,0,0,1,5.042-2.149,5.953,5.953,0,0,1,4.773,2.091,8.342,8.342,0,0,1,1.78,5.6Zm-10.507-1.78h7.563A4.138,4.138,0,0,0,220,158.689a3.435,3.435,0,0,0-2.548-.97,3.65,3.65,0,0,0-2.622.97,4.8,4.8,0,0,0-1.33,2.746Z" transform="translate(-130.893 -31.203)" fill="#e31b23"/><path d="M66.773,273.924v2.948a12.44,12.44,0,0,1-4.379.834,7.216,7.216,0,0,1-7.724-7.7,8.009,8.009,0,0,1,2.042-5.719,7.036,7.036,0,0,1,5.372-2.174,9.073,9.073,0,0,1,2.083.219,13.823,13.823,0,0,1,2.281.826v3.171a7.916,7.916,0,0,0-4.183-1.439,4.266,4.266,0,0,0-3.3,1.414,5.136,5.136,0,0,0-1.292,3.6,4.871,4.871,0,0,0,1.4,3.661,5.172,5.172,0,0,0,3.766,1.357A9.787,9.787,0,0,0,66.773,273.924Z" transform="translate(-5.32 -117.427)" fill="#fff"/><path d="M138.116,263.47a7.843,7.843,0,0,1,5.7,2.213,7.446,7.446,0,0,1,2.271,5.566,7.077,7.077,0,0,1-2.3,5.4,8.154,8.154,0,0,1-5.8,2.147,7.846,7.846,0,0,1-5.655-2.182,7.7,7.7,0,0,1,.025-10.947,7.978,7.978,0,0,1,5.759-2.2Zm-.163,2.68a4.718,4.718,0,0,0-3.514,1.4,4.862,4.862,0,0,0-1.371,3.582,4.7,4.7,0,0,0,1.4,3.524,4.937,4.937,0,0,0,3.611,1.357,4.886,4.886,0,0,0,3.588-1.381,5.114,5.114,0,0,0-.058-7.084A5.042,5.042,0,0,0,137.953,266.15Z" transform="translate(-66.09 -118.517)" fill="#fff"/><path d="M233.75,262.415v3.446l.163-.262q2.158-3.479,4.313-3.479a5.316,5.316,0,0,1,3.514,1.7l-1.569,2.614a4.4,4.4,0,0,0-2.876-1.47,3.083,3.083,0,0,0-2.492,1.373,5.19,5.19,0,0,0-1.053,3.252v7.86h-2.99V262.415Z" transform="translate(-147.262 -117.429)" fill="#fff"/><path d="M297.07,286.369V263.68h5.207a9.011,9.011,0,0,1,6.227,1.994,7.1,7.1,0,0,1,2.228,5.572,7.675,7.675,0,0,1-2.1,5.556,7.1,7.1,0,0,1-5.345,2.172,9.393,9.393,0,0,1-3.18-.634v8.038Zm5.143-19.912h-2.1V275.7a6.185,6.185,0,0,0,2.87.7,4.417,4.417,0,0,0,3.415-1.454,5.334,5.334,0,0,0,1.328-3.743,5.269,5.269,0,0,0-.626-2.6,3.8,3.8,0,0,0-1.712-1.641,7.432,7.432,0,0,0-3.175-.51Z" transform="translate(-200.712 -118.686)" fill="#fff"/><path d="M387.966,263.47a7.843,7.843,0,0,1,5.7,2.213,7.44,7.44,0,0,1,2.269,5.566,7.08,7.08,0,0,1-2.3,5.4,8.152,8.152,0,0,1-5.8,2.147,7.839,7.839,0,0,1-5.653-2.182,7.7,7.7,0,0,1,.025-10.947,7.978,7.978,0,0,1,5.759-2.2Zm-.163,2.68a4.718,4.718,0,0,0-3.514,1.4,4.869,4.869,0,0,0-1.373,3.582,4.7,4.7,0,0,0,1.406,3.524,4.941,4.941,0,0,0,3.611,1.357,4.886,4.886,0,0,0,3.588-1.381,5.114,5.114,0,0,0-.058-7.084,5.042,5.042,0,0,0-3.663-1.4Z" transform="translate(-267.488 -118.517)" fill="#fff"/><path d="M483.586,262.415v3.446l.165-.262q2.155-3.479,4.313-3.479a5.314,5.314,0,0,1,3.512,1.7l-1.567,2.614a4.4,4.4,0,0,0-2.876-1.47,3.088,3.088,0,0,0-2.494,1.373,5.189,5.189,0,0,0-1.053,3.252v7.86H480.6V262.415Z" transform="translate(-348.651 -117.429)" fill="#fff"/><path d="M552.338,268.411v6.39c0,.51.175.776.524.776a3.638,3.638,0,0,0,1.683-.8v1.817a9.847,9.847,0,0,1-1.627.89,3.536,3.536,0,0,1-1.284.227q-1.912,0-2.253-1.5a6.441,6.441,0,0,1-4.036,1.472,3.56,3.56,0,0,1-3.661-3.642,3.673,3.673,0,0,1,1.03-2.544,6.925,6.925,0,0,1,2.909-1.772l3.8-1.307v-.8a2.4,2.4,0,0,0-2.715-2.715,6.523,6.523,0,0,0-4.74,2.521V264.17a6.175,6.175,0,0,1,4.984-2.042,5.758,5.758,0,0,1,3.906,1.274,4.342,4.342,0,0,1,1.383,2.443,20.35,20.35,0,0,1,.1,2.566Zm-2.926,6.064v-4.46l-1.992.776a6.777,6.777,0,0,0-2.149,1.216,2.2,2.2,0,0,0-.033,3.049,2.106,2.106,0,0,0,1.551.582,3.732,3.732,0,0,0,2.623-1.163Z" transform="translate(-397.888 -117.429)" fill="#fff"/><path d="M610.7,253.112l5.591-5.492v3.1h4.755v2.68h-4.755v7.356q0,2.581,2.133,2.579a6.631,6.631,0,0,0,3.384-1.063v2.779a7.5,7.5,0,0,1-3.743.97,4.968,4.968,0,0,1-3.4-1.191,3.407,3.407,0,0,1-.7-.809,4.222,4.222,0,0,1-.465-1.177,12.8,12.8,0,0,1-.194-2.769V253.4h-2.6Z" transform="translate(-453.522 -105.741)" fill="#fff"/><path d="M688.79,270.207H678.217a4.9,4.9,0,0,0,1.447,3.432,4.767,4.767,0,0,0,3.438,1.272,8.946,8.946,0,0,0,5.43-1.829v2.909a9.986,9.986,0,0,1-2.715,1.307,11.361,11.361,0,0,1-3.163.388,7.1,7.1,0,0,1-4.02-1.032,7.468,7.468,0,0,1-2.471-2.763,8.447,8.447,0,0,1-.921-4.022,8.011,8.011,0,0,1,1.939-5.581,6.487,6.487,0,0,1,5.052-2.149A5.947,5.947,0,0,1,687,264.232a8.354,8.354,0,0,1,1.782,5.6Zm-10.509-1.78h7.563a4.17,4.17,0,0,0-1.063-2.746,3.414,3.414,0,0,0-2.546-.97,3.662,3.662,0,0,0-2.624.97A4.787,4.787,0,0,0,678.281,268.427Z" transform="translate(-505.546 -117.445)" fill="#fff"/><path d="M57.93,404.059V381.37h5.207a9.01,9.01,0,0,1,6.227,1.994,7.093,7.093,0,0,1,2.226,5.572,7.673,7.673,0,0,1-2.1,5.554,7.085,7.085,0,0,1-5.345,2.168,9.378,9.378,0,0,1-3.182-.638v8.04Zm5.143-19.92h-2.1v9.248a6.206,6.206,0,0,0,2.87.71,4.429,4.429,0,0,0,3.417-1.452,5.3,5.3,0,0,0,1.328-3.741,5.236,5.236,0,0,0-.628-2.6,3.8,3.8,0,0,0-1.712-1.645,7.565,7.565,0,0,0-3.175-.52Z" transform="translate(-7.948 -213.553)" fill="#fff"/><path d="M159.93,380.1v3.446l.163-.262q2.158-3.479,4.315-3.481a5.321,5.321,0,0,1,3.514,1.7l-1.569,2.612a4.416,4.416,0,0,0-2.876-1.47,3.082,3.082,0,0,0-2.494,1.371,5.2,5.2,0,0,0-1.053,3.254v7.86h-2.99V380.1Z" transform="translate(-87.757 -212.288)" fill="#fff"/><path d="M241.3,387.857H230.727a4.9,4.9,0,0,0,1.445,3.432,4.779,4.779,0,0,0,3.44,1.276,8.957,8.957,0,0,0,5.431-1.834v2.91a10,10,0,0,1-2.715,1.309,11.44,11.44,0,0,1-3.163.388,7.1,7.1,0,0,1-4.02-1.03,7.472,7.472,0,0,1-2.459-2.769,8.48,8.48,0,0,1-.923-4.03,8.008,8.008,0,0,1,1.939-5.579,6.481,6.481,0,0,1,5.042-2.151,5.945,5.945,0,0,1,4.771,2.092,8.37,8.37,0,0,1,1.782,5.606Zm-10.509-1.78h7.563a4.169,4.169,0,0,0-1.063-2.746,3.417,3.417,0,0,0-2.548-.97,3.653,3.653,0,0,0-2.624.97,4.793,4.793,0,0,0-1.328,2.746Z" transform="translate(-144.844 -212.272)" fill="#fff"/><path d="M321.09,394.05v-3.2a13.5,13.5,0,0,0,2.573,1.433,6.021,6.021,0,0,0,2.215.545,2.767,2.767,0,0,0,1.6-.456,1.314,1.314,0,0,0,.671-1.094,1.466,1.466,0,0,0-.434-1.088,10.129,10.129,0,0,0-1.869-1.251,13.2,13.2,0,0,1-3.766-2.738,3.913,3.913,0,0,1-.892-2.474,3.473,3.473,0,0,1,1.357-2.826,5.363,5.363,0,0,1,3.473-1.1,9.558,9.558,0,0,1,4.526,1.243v2.944a9.016,9.016,0,0,0-4.33-1.6,2.407,2.407,0,0,0-1.4.368,1.129,1.129,0,0,0-.531.97,1.4,1.4,0,0,0,.481,1,8.113,8.113,0,0,0,1.691,1.144l1.063.605q3.758,2.123,3.76,4.7a3.745,3.745,0,0,1-1.447,3.031,5.71,5.71,0,0,1-3.718,1.185,9.192,9.192,0,0,1-2.387-.285A16.1,16.1,0,0,1,321.09,394.05Z" transform="translate(-220.074 -212.288)" fill="#fff"/><path d="M411.752,387.873H401.187a4.907,4.907,0,0,0,1.447,3.432,4.777,4.777,0,0,0,3.438,1.276,8.957,8.957,0,0,0,5.431-1.834v2.91a9.984,9.984,0,0,1-2.715,1.309,11.455,11.455,0,0,1-3.163.388,7.094,7.094,0,0,1-4.022-1.03,7.484,7.484,0,0,1-2.455-2.765,8.458,8.458,0,0,1-.925-4.03,8.009,8.009,0,0,1,1.939-5.579,6.481,6.481,0,0,1,5.038-2.15,5.951,5.951,0,0,1,4.773,2.092,8.334,8.334,0,0,1,1.776,5.606Zm-10.507-1.78h7.563a4.169,4.169,0,0,0-1.063-2.746,3.42,3.42,0,0,0-2.55-.97,3.661,3.661,0,0,0-2.624.97,4.844,4.844,0,0,0-1.319,2.746Z" transform="translate(-282.247 -212.288)" fill="#fff"/><path d="M498.041,380.1v1.91a6,6,0,0,1,4.522-2.207,4.968,4.968,0,0,1,2.614.729,4.74,4.74,0,0,1,1.846,1.994,9.546,9.546,0,0,1,.628,4.01v8.6h-2.979v-8.562a5.878,5.878,0,0,0-.7-3.3,2.671,2.671,0,0,0-2.352-.989,4.283,4.283,0,0,0-3.578,2.108v10.738H495V380.1Z" transform="translate(-360.259 -212.287)" fill="#fff"/><path d="M600.113,391.615v2.942a12.512,12.512,0,0,1-4.377.834,7.236,7.236,0,0,1-7.736-7.7,8.007,8.007,0,0,1,2.044-5.717,7.039,7.039,0,0,1,5.374-2.176,8.972,8.972,0,0,1,2.085.233,13.429,13.429,0,0,1,2.279.824v3.169a7.891,7.891,0,0,0-4.181-1.437A4.266,4.266,0,0,0,592.3,384a5.136,5.136,0,0,0-1.292,3.6,4.871,4.871,0,0,0,1.4,3.661,5.174,5.174,0,0,0,3.768,1.357,10.038,10.038,0,0,0,3.937-1Z" transform="translate(-435.224 -212.287)" fill="#fff"/><path d="M688.368,387.849H677.795a4.9,4.9,0,0,0,1.445,3.432,4.779,4.779,0,0,0,3.44,1.276,8.946,8.946,0,0,0,5.43-1.833v2.909a9.958,9.958,0,0,1-2.715,1.309,11.44,11.44,0,0,1-3.171.386,7.1,7.1,0,0,1-4.02-1.03,7.484,7.484,0,0,1-2.457-2.769,8.457,8.457,0,0,1-.925-4.03,8.009,8.009,0,0,1,1.939-5.579,6.481,6.481,0,0,1,5.042-2.151,5.945,5.945,0,0,1,4.771,2.092,8.371,8.371,0,0,1,1.782,5.606Zm-10.509-1.78h7.563a4.169,4.169,0,0,0-1.063-2.746,3.417,3.417,0,0,0-2.548-.97,3.658,3.658,0,0,0-2.624.97A4.778,4.778,0,0,0,677.859,386.069Z" transform="translate(-505.207 -212.264)" fill="#fff"/><path d="M88.62,489.909V488.73H215.9v1.179Z" transform="translate(-32.686 -300.093)" fill="#5d87a1"/></g><text transform="translate(3171 2136)" fill="#fff" font-size="20" font-family="SegoeUI, Segoe UI"><tspan x="0" y="0">®</tspan></text></g></svg>